<svg width="336" height="162" viewBox="0 0 336 162" fill="none" xmlns="http://www.w3.org/2000/svg">
<path d="M11.2895 0L14.4879 6.8872L22.0264 7.80085L16.4647 12.971L17.9253 20.4229L11.2895 16.731L4.6537 20.4229L6.11428 12.971L0.552547 7.80085L8.09104 6.8872L11.2895 0Z" fill="#FFC633"/>
<path d="M40.3553 0L43.5537 6.8872L51.0922 7.80085L45.5305 12.971L46.9911 20.4229L40.3553 16.731L33.7195 20.4229L35.1801 12.971L29.6183 7.80085L37.1568 6.8872L40.3553 0Z" fill="#FFC633"/>
<path d="M69.421 0L72.6195 6.8872L80.158 7.80085L74.5962 12.971L76.0568 20.4229L69.421 16.731L62.7852 20.4229L64.2458 12.971L58.6841 7.80085L66.2226 6.8872L69.421 0Z" fill="#FFC633"/>
<path d="M98.4868 0L101.685 6.8872L109.224 7.80085L103.662 12.971L105.123 20.4229L98.4868 16.731L91.851 20.4229L93.3116 12.971L87.7498 7.80085L95.2883 6.8872L98.4868 0Z" fill="#FFC633"/>
<path d="M127.553 0L130.751 6.8872L138.289 7.80085L132.728 12.971L134.188 20.4229L127.553 16.731L120.917 20.4229L122.377 12.971L116.816 7.80085L124.354 6.8872L127.553 0Z" fill="#FFC633"/>
<path d="M0.78 46.5391C0.78 43.9791 2.9 42.1991 5.98 42.1991C8.94 42.1991 10.82 43.8391 10.9 46.4791H8.34C8.28 45.2191 7.38 44.4791 5.94 44.4791C4.36 44.4791 3.34 45.2391 3.34 46.4591C3.34 47.4991 3.9 48.0791 5.12 48.3591L7.42 48.8591C9.92 49.3991 11.14 50.6791 11.14 52.8591C11.14 55.5791 9.02 57.3391 5.8 57.3391C2.68 57.3391 0.64 55.6791 0.58 53.0591H3.14C3.16 54.2991 4.16 55.0391 5.8 55.0391C7.5 55.0391 8.58 54.2991 8.58 53.0791C8.58 52.0991 8.08 51.5191 6.88 51.2591L4.56 50.7391C2.08 50.1991 0.78 48.7791 0.78 46.5391ZM16.0359 57.3391C13.9359 57.3391 12.6559 56.1191 12.6559 54.2591C12.6559 52.4391 13.9759 51.2991 16.3159 51.1191L19.2759 50.8991V50.6791C19.2759 49.3391 18.4759 48.7991 17.2359 48.7991C15.7959 48.7991 14.9959 49.3991 14.9959 50.4391H12.9159C12.9159 48.2991 14.6759 46.8991 17.3559 46.8991C20.0159 46.8991 21.6559 48.3391 21.6559 51.0791V57.0791H19.5159L19.3359 55.6191C18.9159 56.6391 17.5759 57.3391 16.0359 57.3391ZM16.8359 55.4991C18.3359 55.4991 19.2959 54.5991 19.2959 53.0791V52.5591L17.2359 52.7191C15.7159 52.8591 15.1359 53.3591 15.1359 54.1591C15.1359 55.0591 15.7359 55.4991 16.8359 55.4991ZM30.253 47.1591V49.4191H29.353C27.593 49.4191 26.493 50.3591 26.493 52.2791V57.0791H24.053V47.2191H26.353L26.493 48.6591C26.913 47.6791 27.853 47.0191 29.173 47.0191C29.513 47.0191 29.853 47.0591 30.253 47.1591ZM34.4539 57.3391C32.3539 57.3391 31.0739 56.1191 31.0739 54.2591C31.0739 52.4391 32.3939 51.2991 34.7339 51.1191L37.6939 50.8991V50.6791C37.6939 49.3391 36.8939 48.7991 35.6539 48.7991C34.2139 48.7991 33.4139 49.3991 33.4139 50.4391H31.3339C31.3339 48.2991 33.0939 46.8991 35.7739 46.8991C38.4339 46.8991 40.0739 48.3391 40.0739 51.0791V57.0791H37.9339L37.7539 55.6191C37.3339 56.6391 35.9939 57.3391 34.4539 57.3391ZM35.2539 55.4991C36.7539 55.4991 37.7139 54.5991 37.7139 53.0791V52.5591L35.6539 52.7191C34.1339 52.8591 33.5539 53.3591 33.5539 54.1591C33.5539 55.0591 34.1539 55.4991 35.2539 55.4991ZM44.9109 57.0791H42.4709V42.1991H44.9309V48.4791C45.5509 47.5191 46.7109 46.8991 48.1309 46.8991C50.5709 46.8991 51.8509 48.4391 51.8509 50.9991V57.0791H49.4109V51.5791C49.4109 49.9191 48.5909 49.1191 47.3509 49.1191C45.8109 49.1191 44.9109 50.1991 44.9109 51.6791V57.0791ZM62.4789 57.0791H59.9989V42.4591H62.4789L67.1989 54.0991L71.9189 42.4591H74.4389V57.0791H71.9589V52.5791C71.9589 49.6391 71.9589 48.7791 72.0989 47.7391L68.3789 57.0791H66.0189L62.3189 47.7591C62.4589 48.6391 62.4789 50.0191 62.4789 51.8391V57.0791ZM78.9547 57.3191C78.0747 57.3191 77.3347 56.5991 77.3347 55.7391C77.3347 54.8591 78.0747 54.1391 78.9547 54.1391C79.8347 54.1391 80.5747 54.8591 80.5747 55.7391C80.5747 56.5991 79.8347 57.3191 78.9547 57.3191Z" fill="black"/>
<path d="M98 39.8291C96.0716 39.8291 94.1866 40.4009 92.5832 41.4723C90.9798 42.5436 89.7301 44.0664 88.9922 45.8479C88.2542 47.6295 88.0611 49.5899 88.4373 51.4812C88.8136 53.3725 89.7422 55.1098 91.1057 56.4734C92.4693 57.837 94.2066 58.7656 96.0979 59.1418C97.9892 59.518 99.9496 59.3249 101.731 58.5869C103.513 57.849 105.035 56.5993 106.107 54.9959C107.178 53.3925 107.75 51.5075 107.75 49.5791C107.747 46.9941 106.719 44.5157 104.891 42.6878C103.063 40.8599 100.585 39.8318 98 39.8291ZM102.281 47.8597L97.0306 53.1097C96.961 53.1795 96.8783 53.2348 96.7872 53.2725C96.6962 53.3103 96.5986 53.3297 96.5 53.3297C96.4014 53.3297 96.3038 53.3103 96.2128 53.2725C96.1218 53.2348 96.039 53.1795 95.9694 53.1097L93.7194 50.8597C93.5786 50.719 93.4996 50.5281 93.4996 50.3291C93.4996 50.1301 93.5786 49.9392 93.7194 49.7985C93.8601 49.6577 94.051 49.5787 94.25 49.5787C94.449 49.5787 94.6399 49.6577 94.7806 49.7985L96.5 51.5188L101.219 46.7985C101.289 46.7288 101.372 46.6735 101.463 46.6358C101.554 46.5981 101.651 46.5787 101.75 46.5787C101.849 46.5787 101.946 46.5981 102.037 46.6358C102.128 46.6735 102.211 46.7288 102.281 46.7985C102.35 46.8682 102.406 46.9509 102.443 47.0419C102.481 47.133 102.5 47.2306 102.5 47.3291C102.5 47.4276 102.481 47.5252 102.443 47.6163C102.406 47.7073 102.35 47.79 102.281 47.8597Z" fill="#01AB31"/>
<path d="M2.08 79.9071L1.776 83.0911H1.056L0.736 79.9071C0.672 79.3471 1.072 79.0911 1.424 79.0911C1.76 79.0911 2.144 79.3471 2.08 79.9071ZM4.336 79.9071L4.032 83.0911H3.312L2.992 79.9071C2.928 79.3471 3.328 79.0911 3.68 79.0911C4.016 79.0911 4.4 79.3471 4.336 79.9071ZM7.62213 79.1231V90.5791H6.47013V79.1231H7.62213ZM11.0956 79.9071L10.7916 83.0911H10.0716L9.75163 79.9071C9.68763 79.3471 10.0876 79.0911 10.4396 79.0911C10.7756 79.0911 11.1596 79.3471 11.0956 79.9071ZM14.0841 90.5791H12.9801V82.8351H13.9401L14.0681 83.9391C14.4521 83.1231 15.3161 82.6271 16.4041 82.6271C17.6201 82.6271 18.5321 83.2671 18.9001 84.2751C19.2521 83.2671 20.1961 82.6271 21.4441 82.6271C23.1241 82.6271 24.2281 83.7151 24.2281 85.5071V90.5791H23.1561V85.7311C23.1561 84.4031 22.4201 83.6191 21.2361 83.6191C19.9401 83.6191 19.1721 84.5951 19.1721 85.7951V90.5791H18.0841V85.7151C18.0841 84.4031 17.3321 83.6351 16.1641 83.6351C14.8681 83.6351 14.0841 84.5951 14.0841 85.7791V90.5791ZM31.8464 90.5791H30.8864V78.9151H31.9904V84.3391C32.5344 83.2031 33.5904 82.6271 34.9024 82.6271C37.1584 82.6271 38.4704 84.3871 38.4704 86.7231C38.4704 89.0431 37.1264 90.7711 34.8704 90.7711C33.5744 90.7711 32.5024 90.1951 31.9584 88.9951L31.8464 90.5791ZM32.0064 86.6911C32.0064 88.4831 32.9984 89.7631 34.6944 89.7631C36.3744 89.7631 37.3504 88.4831 37.3504 86.6911C37.3504 84.9151 36.3744 83.6191 34.6944 83.6191C32.9984 83.6191 32.0064 84.9151 32.0064 86.6911ZM41.3821 90.5791H40.2781V78.9151H41.3821V90.5791ZM43.1861 86.7071C43.1861 84.3391 44.8501 82.6271 47.1221 82.6271C49.3941 82.6271 51.0581 84.3391 51.0581 86.7071C51.0581 89.0591 49.3941 90.7711 47.1221 90.7711C44.8501 90.7711 43.1861 89.0591 43.1861 86.7071ZM44.3061 86.6911C44.3061 88.5151 45.4581 89.7791 47.1221 89.7791C48.7701 89.7791 49.9381 88.5151 49.9381 86.6911C49.9381 84.8991 48.7701 83.6191 47.1221 83.6191C45.4581 83.6191 44.3061 84.8991 44.3061 86.6911ZM54.1121 90.5791L51.5521 82.8351H52.6881L54.2081 87.5071C54.3841 88.0191 54.5281 88.5471 54.6881 89.1711C54.8161 88.5471 55.0721 87.7631 55.1521 87.5071L56.6881 82.8351H57.8241L59.3441 87.5071C59.4881 87.9231 59.6801 88.5951 59.8241 89.1711C59.9841 88.5311 60.0161 88.3391 60.2881 87.5071L61.8241 82.8351H62.9761L60.3521 90.5791H59.2801L57.6801 85.7151C57.4881 85.1391 57.3601 84.6591 57.2641 84.1951C57.1521 84.6111 57.0241 85.0751 56.8161 85.7151L55.2161 90.5791H54.1121ZM65.4591 90.5791H64.3551V82.8351H65.3151L65.4751 84.1791C65.9871 83.1871 67.0111 82.6271 68.1311 82.6271C70.2591 82.6271 71.1391 83.8911 71.1391 85.8431V90.5791H70.0351V86.0831C70.0351 84.2751 69.2191 83.6351 67.9391 83.6351C66.3551 83.6351 65.4591 84.7871 65.4591 86.5311V90.5791ZM80.001 90.7711C78.353 90.7711 77.377 89.8431 77.377 88.4831C77.377 87.0591 78.465 86.1631 80.273 86.0191L82.833 85.8111V85.5551C82.833 84.0351 81.921 83.5551 80.785 83.5551C79.441 83.5551 78.641 84.1631 78.641 85.2031H77.633C77.633 83.6351 78.913 82.6271 80.817 82.6271C82.609 82.6271 83.921 83.5231 83.921 85.5711V90.5791H82.993L82.849 89.2191C82.369 90.1951 81.313 90.7711 80.001 90.7711ZM80.257 89.8751C81.889 89.8751 82.833 88.7391 82.833 87.0591V86.6431L80.545 86.8191C79.089 86.9471 78.497 87.5871 78.497 88.4511C78.497 89.3951 79.201 89.8751 80.257 89.8751ZM87.534 90.5791L84.974 82.8351H86.11L87.63 87.5071C87.806 88.0191 87.95 88.5471 88.11 89.1711C88.238 88.5471 88.494 87.7631 88.574 87.5071L90.11 82.8351H91.246L92.766 87.5071C92.91 87.9231 93.102 88.5951 93.246 89.1711C93.406 88.5311 93.438 88.3391 93.71 87.5071L95.246 82.8351H96.398L93.774 90.5791H92.702L91.102 85.7151C90.91 85.1391 90.782 84.6591 90.686 84.1951C90.574 84.6111 90.446 85.0751 90.238 85.7151L88.638 90.5791H87.534ZM99.6573 90.7711C98.0093 90.7711 97.0333 89.8431 97.0333 88.4831C97.0333 87.0591 98.1213 86.1631 99.9293 86.0191L102.489 85.8111V85.5551C102.489 84.0351 101.577 83.5551 100.441 83.5551C99.0973 83.5551 98.2973 84.1631 98.2973 85.2031H97.2893C97.2893 83.6351 98.5693 82.6271 100.473 82.6271C102.265 82.6271 103.577 83.5231 103.577 85.5711V90.5791H102.649L102.505 89.2191C102.025 90.1951 100.969 90.7711 99.6573 90.7711ZM99.9133 89.8751C101.545 89.8751 102.489 88.7391 102.489 87.0591V86.6431L100.201 86.8191C98.7453 86.9471 98.1533 87.5871 98.1533 88.4511C98.1533 89.3951 98.8573 89.8751 99.9133 89.8751ZM104.837 93.9551V93.0431H105.685C106.357 93.0431 107.029 92.9951 107.413 91.9551L107.749 91.0431L104.613 82.8351H105.781L108.277 89.5871L110.725 82.8351H111.861L108.309 92.3551C107.861 93.5711 107.109 94.0671 106.005 94.0671C105.541 94.0671 105.189 94.0351 104.837 93.9551ZM118.549 90.5791H117.59V78.9151H118.694V84.3391C119.238 83.2031 120.294 82.6271 121.606 82.6271C123.862 82.6271 125.174 84.3871 125.174 86.7231C125.174 89.0431 123.83 90.7711 121.574 90.7711C120.278 90.7711 119.206 90.1951 118.662 88.9951L118.549 90.5791ZM118.71 86.6911C118.71 88.4831 119.702 89.7631 121.398 89.7631C123.078 89.7631 124.054 88.4831 124.054 86.6911C124.054 84.9151 123.078 83.6191 121.398 83.6191C119.702 83.6191 118.71 84.9151 118.71 86.6911ZM125.899 93.9551V93.0431H126.747C127.419 93.0431 128.091 92.9951 128.475 91.9551L128.811 91.0431L125.675 82.8351H126.843L129.339 89.5871L131.787 82.8351H132.923L129.371 92.3551C128.923 93.5711 128.171 94.0671 127.067 94.0671C126.603 94.0671 126.251 94.0351 125.899 93.9551ZM140.428 90.5791H139.34V83.7631H137.788V82.8351H139.34V80.3871H140.428V82.8351H141.98V83.7631H140.428V90.5791ZM144.522 90.5631H143.418V78.9151H144.522V84.1791C145.018 83.2511 145.962 82.6271 147.258 82.6271C149.29 82.6271 150.202 83.8911 150.202 85.8431V90.5791H149.098V86.0831C149.098 84.2751 148.25 83.6351 147.05 83.6351C145.386 83.6351 144.522 84.8671 144.522 86.3551V90.5631ZM155.65 90.7711C153.378 90.7711 151.858 89.1391 151.858 86.7071C151.858 84.2911 153.362 82.6271 155.57 82.6271C157.666 82.6271 159.09 84.1151 159.09 86.3071V86.8511H152.93C153.01 88.7391 154.002 89.8271 155.666 89.8271C156.93 89.8271 157.746 89.2831 158.034 88.2591H159.09C158.674 89.8911 157.474 90.7711 155.65 90.7711ZM155.57 83.5711C154.114 83.5711 153.154 84.5311 152.962 86.0511H157.986C157.986 84.5631 157.026 83.5711 155.57 83.5711ZM164.749 86.6751C164.749 84.3391 166.093 82.6271 168.333 82.6271C169.629 82.6271 170.701 83.2031 171.261 84.4031L171.373 82.8351H172.333V93.9551H171.229V89.0911C170.685 90.2111 169.645 90.7711 168.333 90.7711C166.045 90.7711 164.749 89.0111 164.749 86.6751ZM165.869 86.7071C165.869 88.4831 166.845 89.7791 168.525 89.7791C170.221 89.7791 171.213 88.4831 171.213 86.7071C171.213 84.9151 170.221 83.6351 168.525 83.6351C166.845 83.6351 165.869 84.9151 165.869 86.7071ZM180.076 82.8351H181.18V90.5791H180.22L180.076 89.2671C179.644 90.1631 178.572 90.7711 177.356 90.7711C175.532 90.7711 174.54 89.5231 174.54 87.6351V82.8191H175.66V87.2831C175.66 89.1231 176.476 89.7791 177.708 89.7791C179.196 89.7791 180.076 88.7871 180.076 86.9471V82.8351ZM185.704 90.7711C184.056 90.7711 183.08 89.8431 183.08 88.4831C183.08 87.0591 184.168 86.1631 185.976 86.0191L188.536 85.8111V85.5551C188.536 84.0351 187.624 83.5551 186.488 83.5551C185.144 83.5551 184.344 84.1631 184.344 85.2031H183.336C183.336 83.6351 184.616 82.6271 186.52 82.6271C188.312 82.6271 189.624 83.5231 189.624 85.5711V90.5791H188.696L188.552 89.2191C188.072 90.1951 187.016 90.7711 185.704 90.7711ZM185.96 89.8751C187.592 89.8751 188.536 88.7391 188.536 87.0591V86.6431L186.248 86.8191C184.792 86.9471 184.2 87.5871 184.2 88.4511C184.2 89.3951 184.904 89.8751 185.96 89.8751ZM192.992 90.5791H191.888V78.9151H192.992V90.5791ZM195.884 80.7071C195.436 80.7071 195.068 80.3391 195.068 79.8911C195.068 79.4431 195.436 79.0591 195.884 79.0591C196.332 79.0591 196.716 79.4431 196.716 79.8911C196.716 80.3391 196.332 80.7071 195.884 80.7071ZM195.34 90.5791V82.8351H196.444V90.5791H195.34ZM200.522 90.5791H199.434V83.7631H197.882V82.8351H199.434V80.3871H200.522V82.8351H202.074V83.7631H200.522V90.5791ZM202.727 93.9551V93.0431H203.575C204.247 93.0431 204.919 92.9951 205.303 91.9551L205.639 91.0431L202.503 82.8351H203.671L206.167 89.5871L208.615 82.8351H209.751L206.199 92.3551C205.751 93.5711 204.999 94.0671 203.895 94.0671C203.431 94.0671 203.079 94.0351 202.727 93.9551ZM217.704 90.7711C216.056 90.7711 215.08 89.8431 215.08 88.4831C215.08 87.0591 216.168 86.1631 217.976 86.0191L220.536 85.8111V85.5551C220.536 84.0351 219.624 83.5551 218.488 83.5551C217.144 83.5551 216.344 84.1631 216.344 85.2031H215.336C215.336 83.6351 216.616 82.6271 218.52 82.6271C220.312 82.6271 221.624 83.5231 221.624 85.5711V90.5791H220.696L220.552 89.2191C220.072 90.1951 219.016 90.7711 217.704 90.7711ZM217.96 89.8751C219.592 89.8751 220.536 88.7391 220.536 87.0591V86.6431L218.248 86.8191C216.792 86.9471 216.2 87.5871 216.2 88.4511C216.2 89.3951 216.904 89.8751 217.96 89.8751ZM224.944 90.5791H223.84V82.8351H224.799L224.96 84.1791C225.472 83.1871 226.496 82.6271 227.616 82.6271C229.744 82.6271 230.624 83.8911 230.624 85.8431V90.5791H229.52V86.0831C229.52 84.2751 228.704 83.6351 227.424 83.6351C225.84 83.6351 224.944 84.7871 224.944 86.5311V90.5791ZM235.864 90.7711C233.608 90.7711 232.28 89.0431 232.28 86.7231C232.28 84.3871 233.608 82.6271 235.912 82.6271C237.192 82.6271 238.216 83.1871 238.76 84.3071V78.9151H239.864V90.5791H238.904L238.792 88.9951C238.248 90.1951 237.16 90.7711 235.864 90.7711ZM236.056 89.7631C237.752 89.7631 238.744 88.4831 238.744 86.6911C238.744 84.9151 237.752 83.6191 236.056 83.6191C234.376 83.6191 233.4 84.9151 233.4 86.6911C233.4 88.4831 234.376 89.7631 236.056 89.7631ZM245.949 88.4031H247.005C247.005 89.2991 247.677 89.8591 248.765 89.8591C249.965 89.8591 250.669 89.3471 250.669 88.5151C250.669 87.8751 250.349 87.5071 249.437 87.2831L248.109 86.9471C246.765 86.6111 246.109 85.9071 246.109 84.8511C246.109 83.4911 247.245 82.6271 248.909 82.6271C250.541 82.6271 251.597 83.5231 251.645 84.9631H250.573C250.541 84.0671 249.917 83.5391 248.877 83.5391C247.789 83.5391 247.181 84.0031 247.181 84.8351C247.181 85.4271 247.597 85.8431 248.445 86.0511L249.773 86.3871C251.117 86.7231 251.725 87.3471 251.725 88.4671C251.725 89.8591 250.541 90.7711 248.781 90.7711C247.037 90.7711 245.949 89.8431 245.949 88.4031ZM255.319 90.5791H254.231V83.7631H252.679V82.8351H254.231V80.3871H255.319V82.8351H256.871V83.7631H255.319V90.5791ZM257.524 93.9551V93.0431H258.372C259.044 93.0431 259.716 92.9951 260.1 91.9551L260.436 91.0431L257.3 82.8351H258.468L260.964 89.5871L263.412 82.8351H264.548L260.996 92.3551C260.548 93.5711 259.796 94.0671 258.692 94.0671C258.228 94.0671 257.876 94.0351 257.524 93.9551ZM266.992 90.5791H265.888V78.9151H266.992V90.5791ZM272.588 90.7711C270.316 90.7711 268.796 89.1391 268.796 86.7071C268.796 84.2911 270.299 82.6271 272.508 82.6271C274.604 82.6271 276.028 84.1151 276.028 86.3071V86.8511H269.868C269.948 88.7391 270.94 89.8271 272.604 89.8271C273.868 89.8271 274.684 89.2831 274.972 88.2591H276.028C275.612 89.8911 274.412 90.7711 272.588 90.7711ZM272.508 83.5711C271.052 83.5711 270.092 84.5311 269.9 86.0511H274.924C274.924 84.5631 273.964 83.5711 272.508 83.5711ZM281.686 86.7071C281.686 84.3391 283.35 82.6271 285.622 82.6271C287.894 82.6271 289.558 84.3391 289.558 86.7071C289.558 89.0591 287.894 90.7711 285.622 90.7711C283.35 90.7711 281.686 89.0591 281.686 86.7071ZM282.806 86.6911C282.806 88.5151 283.958 89.7791 285.622 89.7791C287.27 89.7791 288.438 88.5151 288.438 86.6911C288.438 84.8991 287.27 83.6191 285.622 83.6191C283.958 83.6191 282.806 84.8991 282.806 86.6911ZM290.397 82.8351H291.581V81.3311C291.581 79.5871 292.541 78.9151 293.725 78.9151C293.997 78.9151 294.317 78.9311 294.573 78.9791V79.9231H293.917C292.941 79.9231 292.685 80.4191 292.685 81.3311V82.8351H294.509V83.7631H292.685V90.5791H291.581V83.7631H290.397V82.8351ZM302.225 90.5791H301.137V83.7631H299.585V82.8351H301.137V80.3871H302.225V82.8351H303.777V83.7631H302.225V90.5791ZM306.319 90.5631H305.215V78.9151H306.319V84.1791C306.815 83.2511 307.759 82.6271 309.055 82.6271C311.087 82.6271 311.999 83.8911 311.999 85.8431V90.5791H310.895V86.0831C310.895 84.2751 310.047 83.6351 308.847 83.6351C307.183 83.6351 306.319 84.8671 306.319 86.3551V90.5631ZM317.447 90.7711C315.175 90.7711 313.655 89.1391 313.655 86.7071C313.655 84.2911 315.159 82.6271 317.367 82.6271C319.463 82.6271 320.887 84.1151 320.887 86.3071V86.8511H314.727C314.807 88.7391 315.799 89.8271 317.463 89.8271C318.727 89.8271 319.543 89.2831 319.831 88.2591H320.887C320.471 89.8911 319.271 90.7711 317.447 90.7711ZM317.367 83.5711C315.911 83.5711 314.951 84.5311 314.759 86.0511H319.783C319.783 84.5631 318.823 83.5711 317.367 83.5711ZM0.608 108.723C0.608 106.291 2.096 104.627 4.352 104.627C6.144 104.627 7.456 105.667 7.76 107.267H6.656C6.368 106.195 5.44 105.603 4.368 105.603C2.8 105.603 1.696 106.803 1.696 108.707C1.696 110.547 2.72 111.779 4.288 111.779C5.44 111.779 6.368 111.139 6.672 110.147H7.792C7.424 111.731 6.048 112.771 4.288 112.771C2.096 112.771 0.608 111.155 0.608 108.723ZM10.6165 112.579H9.5125V100.915H10.6165V112.579ZM12.4205 108.707C12.4205 106.339 14.0845 104.627 16.3565 104.627C18.6285 104.627 20.2925 106.339 20.2925 108.707C20.2925 111.059 18.6285 112.771 16.3565 112.771C14.0845 112.771 12.4205 111.059 12.4205 108.707ZM13.5405 108.691C13.5405 110.515 14.6925 111.779 16.3565 111.779C18.0045 111.779 19.1725 110.515 19.1725 108.691C19.1725 106.899 18.0045 105.619 16.3565 105.619C14.6925 105.619 13.5405 106.899 13.5405 108.691ZM23.7561 112.579H22.6681V105.763H21.1161V104.835H22.6681V102.387H23.7561V104.835H25.3081V105.763H23.7561V112.579ZM27.8498 112.563H26.7458V100.915H27.8498V106.179C28.3458 105.251 29.2898 104.627 30.5858 104.627C32.6178 104.627 33.5298 105.891 33.5298 107.843V112.579H32.4258V108.083C32.4258 106.275 31.5778 105.635 30.3778 105.635C28.7138 105.635 27.8498 106.867 27.8498 108.355V112.563ZM38.9781 112.771C36.7061 112.771 35.1861 111.139 35.1861 108.707C35.1861 106.291 36.6901 104.627 38.8981 104.627C40.9941 104.627 42.4181 106.115 42.4181 108.307V108.851H36.2581C36.3381 110.739 37.3301 111.827 38.9941 111.827C40.2581 111.827 41.0741 111.283 41.3621 110.259H42.4181C42.0021 111.891 40.8021 112.771 38.9781 112.771ZM38.8981 105.571C37.4421 105.571 36.4821 106.531 36.2901 108.051H41.3141C41.3141 106.563 40.3541 105.571 38.8981 105.571ZM43.5273 110.403H44.5833C44.5833 111.299 45.2553 111.859 46.3433 111.859C47.5433 111.859 48.2473 111.347 48.2473 110.515C48.2473 109.875 47.9273 109.507 47.0153 109.283L45.6873 108.947C44.3433 108.611 43.6873 107.907 43.6873 106.851C43.6873 105.491 44.8233 104.627 46.4873 104.627C48.1193 104.627 49.1753 105.523 49.2233 106.963H48.1513C48.1193 106.067 47.4953 105.539 46.4553 105.539C45.3673 105.539 44.7593 106.003 44.7593 106.835C44.7593 107.427 45.1753 107.843 46.0233 108.051L47.3513 108.387C48.6953 108.723 49.3033 109.347 49.3033 110.467C49.3033 111.859 48.1193 112.771 46.3593 112.771C44.6153 112.771 43.5273 111.843 43.5273 110.403ZM56.9503 101.123V112.579H55.7983V101.123H56.9503ZM67.9813 104.739V105.731H67.3733C65.9493 105.731 65.0373 106.691 65.0373 108.163V112.579H63.9333V104.835H64.9733L65.0533 106.035C65.3573 105.203 66.1733 104.659 67.2613 104.659C67.5013 104.659 67.7093 104.675 67.9813 104.739ZM72.4 112.771C70.128 112.771 68.608 111.139 68.608 108.707C68.608 106.291 70.112 104.627 72.32 104.627C74.416 104.627 75.84 106.115 75.84 108.307V108.851H69.68C69.76 110.739 70.752 111.827 72.416 111.827C73.68 111.827 74.496 111.283 74.784 110.259H75.84C75.424 111.891 74.224 112.771 72.4 112.771ZM72.32 105.571C70.864 105.571 69.904 106.531 69.712 108.051H74.736C74.736 106.563 73.776 105.571 72.32 105.571ZM77.0611 108.723C77.0611 106.291 78.5491 104.627 80.8051 104.627C82.5971 104.627 83.9091 105.667 84.2131 107.267H83.1091C82.8211 106.195 81.8931 105.603 80.8211 105.603C79.2531 105.603 78.1491 106.803 78.1491 108.707C78.1491 110.547 79.1731 111.779 80.7411 111.779C81.8931 111.779 82.8211 111.139 83.1251 110.147H84.2451C83.8771 111.731 82.5011 112.771 80.7411 112.771C78.5491 112.771 77.0611 111.155 77.0611 108.723ZM89.1656 112.771C86.8936 112.771 85.3736 111.139 85.3736 108.707C85.3736 106.291 86.8776 104.627 89.0856 104.627C91.1816 104.627 92.6056 106.115 92.6056 108.307V108.851H86.4456C86.5256 110.739 87.5176 111.827 89.1816 111.827C90.4456 111.827 91.2616 111.283 91.5496 110.259H92.6056C92.1896 111.891 90.9896 112.771 89.1656 112.771ZM89.0856 105.571C87.6296 105.571 86.6696 106.531 86.4776 108.051H91.5016C91.5016 106.563 90.5416 105.571 89.0856 105.571ZM94.9148 102.707C94.4668 102.707 94.0988 102.339 94.0988 101.891C94.0988 101.443 94.4668 101.059 94.9148 101.059C95.3628 101.059 95.7468 101.443 95.7468 101.891C95.7468 102.339 95.3628 102.707 94.9148 102.707ZM94.3708 112.579V104.835H95.4748V112.579H94.3708ZM99.937 112.579L96.769 104.835H97.953L99.953 109.827C100.161 110.387 100.369 110.915 100.513 111.427C100.657 110.899 100.865 110.387 101.089 109.827L103.121 104.835H104.257L101.041 112.579H99.937ZM108.463 112.771C106.191 112.771 104.671 111.139 104.671 108.707C104.671 106.291 106.174 104.627 108.383 104.627C110.479 104.627 111.903 106.115 111.903 108.307V108.851H105.743C105.823 110.739 106.815 111.827 108.479 111.827C109.743 111.827 110.559 111.283 110.847 110.259H111.903C111.487 111.891 110.287 112.771 108.463 112.771ZM108.383 105.571C106.927 105.571 105.967 106.531 105.775 108.051H110.799C110.799 106.563 109.839 105.571 108.383 105.571ZM116.708 112.771C114.452 112.771 113.124 111.043 113.124 108.723C113.124 106.387 114.452 104.627 116.756 104.627C118.036 104.627 119.06 105.187 119.604 106.307V100.915H120.708V112.579H119.748L119.636 110.995C119.092 112.195 118.004 112.771 116.708 112.771ZM116.9 111.763C118.596 111.763 119.588 110.483 119.588 108.691C119.588 106.915 118.596 105.619 116.9 105.619C115.22 105.619 114.244 106.915 114.244 108.691C114.244 110.483 115.22 111.763 116.9 111.763ZM126.585 104.835H127.769V103.331C127.769 101.587 128.729 100.915 129.913 100.915C130.185 100.915 130.505 100.931 130.761 100.979V101.923H130.105C129.129 101.923 128.873 102.419 128.873 103.331V104.835H130.697V105.763H128.873V112.579H127.769V105.763H126.585V104.835ZM136.247 104.739V105.731H135.639C134.215 105.731 133.303 106.691 133.303 108.163V112.579H132.199V104.835H133.239L133.319 106.035C133.623 105.203 134.439 104.659 135.527 104.659C135.767 104.659 135.975 104.675 136.247 104.739ZM136.874 108.707C136.874 106.339 138.538 104.627 140.81 104.627C143.082 104.627 144.746 106.339 144.746 108.707C144.746 111.059 143.082 112.771 140.81 112.771C138.538 112.771 136.874 111.059 136.874 108.707ZM137.994 108.691C137.994 110.515 139.146 111.779 140.81 111.779C142.458 111.779 143.626 110.515 143.626 108.691C143.626 106.899 142.458 105.619 140.81 105.619C139.146 105.619 137.994 106.899 137.994 108.691ZM147.615 112.579H146.511V104.835H147.471L147.599 105.939C147.983 105.123 148.847 104.627 149.935 104.627C151.151 104.627 152.063 105.267 152.431 106.275C152.783 105.267 153.727 104.627 154.975 104.627C156.655 104.627 157.759 105.715 157.759 107.507V112.579H156.687V107.731C156.687 106.403 155.951 105.619 154.767 105.619C153.471 105.619 152.703 106.595 152.703 107.795V112.579H151.615V107.715C151.615 106.403 150.863 105.635 149.695 105.635C148.399 105.635 147.615 106.595 147.615 107.779V112.579ZM163.97 104.099C163.97 102.179 165.506 100.915 167.81 100.915C169.874 100.915 171.234 102.067 171.41 103.987H170.242C170.114 102.691 169.234 101.955 167.794 101.955C166.178 101.955 165.122 102.787 165.122 104.083C165.122 105.091 165.714 105.731 166.914 106.035L168.882 106.515C170.674 106.947 171.602 107.971 171.602 109.523C171.602 111.507 170.066 112.771 167.698 112.771C165.474 112.771 163.97 111.603 163.826 109.731H165.01C165.074 110.931 166.13 111.715 167.698 111.715C169.378 111.715 170.45 110.899 170.45 109.587C170.45 108.563 169.874 107.891 168.642 107.603L166.706 107.123C164.914 106.691 163.97 105.667 163.97 104.099ZM174.537 112.563H173.433V100.915H174.537V106.179C175.033 105.251 175.977 104.627 177.273 104.627C179.305 104.627 180.217 105.891 180.217 107.843V112.579H179.113V108.083C179.113 106.275 178.265 105.635 177.065 105.635C175.401 105.635 174.537 106.867 174.537 108.355V112.563ZM181.874 108.707C181.874 106.339 183.538 104.627 185.81 104.627C188.082 104.627 189.746 106.339 189.746 108.707C189.746 111.059 188.082 112.771 185.81 112.771C183.538 112.771 181.874 111.059 181.874 108.707ZM182.994 108.691C182.994 110.515 184.146 111.779 185.81 111.779C187.458 111.779 188.626 110.515 188.626 108.691C188.626 106.899 187.458 105.619 185.81 105.619C184.146 105.619 182.994 106.899 182.994 108.691ZM191.511 115.955V104.835H192.471L192.583 106.403C193.127 105.203 194.215 104.627 195.511 104.627C197.751 104.627 199.095 106.339 199.095 108.675C199.095 111.011 197.799 112.771 195.511 112.771C194.199 112.771 193.159 112.211 192.615 111.091V115.955H191.511ZM192.631 108.707C192.631 110.483 193.623 111.779 195.319 111.779C196.999 111.779 197.975 110.483 197.975 108.707C197.975 106.915 196.999 105.635 195.319 105.635C193.623 105.635 192.631 106.915 192.631 108.707ZM201.315 112.755C200.771 112.755 200.307 112.307 200.307 111.779C200.307 111.235 200.771 110.771 201.315 110.771C201.859 110.771 202.323 111.235 202.323 111.779C202.323 112.307 201.859 112.755 201.315 112.755ZM203.53 108.723C203.53 106.291 205.018 104.627 207.274 104.627C209.066 104.627 210.378 105.667 210.682 107.267H209.578C209.29 106.195 208.362 105.603 207.29 105.603C205.722 105.603 204.618 106.803 204.618 108.707C204.618 110.547 205.642 111.779 207.21 111.779C208.362 111.779 209.29 111.139 209.594 110.147H210.714C210.346 111.731 208.97 112.771 207.21 112.771C205.018 112.771 203.53 111.155 203.53 108.723ZM211.842 108.707C211.842 106.339 213.506 104.627 215.778 104.627C218.05 104.627 219.714 106.339 219.714 108.707C219.714 111.059 218.05 112.771 215.778 112.771C213.506 112.771 211.842 111.059 211.842 108.707ZM212.962 108.691C212.962 110.515 214.114 111.779 215.778 111.779C217.426 111.779 218.594 110.515 218.594 108.691C218.594 106.899 217.426 105.619 215.778 105.619C214.114 105.619 212.962 106.899 212.962 108.691ZM221.94 112.755C221.396 112.755 220.932 112.307 220.932 111.779C220.932 111.235 221.396 110.771 221.94 110.771C222.484 110.771 222.948 111.235 222.948 111.779C222.948 112.307 222.484 112.755 221.94 112.755ZM235.701 107.539H231.013V112.579H229.861V101.123H236.613V102.179H231.013V106.499H235.701V107.539ZM241.872 104.739V105.731H241.264C239.84 105.731 238.928 106.691 238.928 108.163V112.579H237.824V104.835H238.864L238.944 106.035C239.248 105.203 240.064 104.659 241.152 104.659C241.392 104.659 241.6 104.675 241.872 104.739ZM242.499 108.707C242.499 106.339 244.163 104.627 246.435 104.627C248.707 104.627 250.371 106.339 250.371 108.707C250.371 111.059 248.707 112.771 246.435 112.771C244.163 112.771 242.499 111.059 242.499 108.707ZM243.619 108.691C243.619 110.515 244.771 111.779 246.435 111.779C248.083 111.779 249.251 110.515 249.251 108.691C249.251 106.899 248.083 105.619 246.435 105.619C244.771 105.619 243.619 106.899 243.619 108.691ZM253.24 112.579H252.136V104.835H253.096L253.224 105.939C253.608 105.123 254.472 104.627 255.56 104.627C256.776 104.627 257.688 105.267 258.056 106.275C258.408 105.267 259.352 104.627 260.6 104.627C262.28 104.627 263.384 105.715 263.384 107.507V112.579H262.312V107.731C262.312 106.403 261.576 105.619 260.392 105.619C259.096 105.619 258.328 106.595 258.328 107.795V112.579H257.24V107.715C257.24 106.403 256.488 105.635 255.32 105.635C254.024 105.635 253.24 106.595 253.24 107.779V112.579ZM269.499 108.723C269.499 106.291 270.987 104.627 273.243 104.627C275.035 104.627 276.347 105.667 276.651 107.267H275.547C275.259 106.195 274.331 105.603 273.259 105.603C271.691 105.603 270.587 106.803 270.587 108.707C270.587 110.547 271.611 111.779 273.179 111.779C274.331 111.779 275.259 111.139 275.563 110.147H276.683C276.315 111.731 274.939 112.771 273.179 112.771C270.987 112.771 269.499 111.155 269.499 108.723ZM280.579 112.771C278.931 112.771 277.955 111.843 277.955 110.483C277.955 109.059 279.043 108.163 280.851 108.019L283.411 107.811V107.555C283.411 106.035 282.499 105.555 281.363 105.555C280.019 105.555 279.219 106.163 279.219 107.203H278.211C278.211 105.635 279.491 104.627 281.395 104.627C283.187 104.627 284.499 105.523 284.499 107.571V112.579H283.571L283.427 111.219C282.947 112.195 281.891 112.771 280.579 112.771ZM280.835 111.875C282.467 111.875 283.411 110.739 283.411 109.059V108.643L281.123 108.819C279.667 108.947 279.075 109.587 279.075 110.451C279.075 111.395 279.779 111.875 280.835 111.875ZM286.059 110.403H287.115C287.115 111.299 287.787 111.859 288.875 111.859C290.075 111.859 290.779 111.347 290.779 110.515C290.779 109.875 290.459 109.507 289.547 109.283L288.219 108.947C286.875 108.611 286.219 107.907 286.219 106.851C286.219 105.491 287.355 104.627 289.019 104.627C290.651 104.627 291.707 105.523 291.755 106.963H290.683C290.651 106.067 290.027 105.539 288.987 105.539C287.899 105.539 287.291 106.003 287.291 106.835C287.291 107.427 287.707 107.843 288.555 108.051L289.883 108.387C291.227 108.723 291.835 109.347 291.835 110.467C291.835 111.859 290.651 112.771 288.891 112.771C287.147 112.771 286.059 111.843 286.059 110.403ZM299.092 104.835H300.196V112.579H299.236L299.092 111.267C298.66 112.163 297.588 112.771 296.372 112.771C294.548 112.771 293.556 111.523 293.556 109.635V104.819H294.676V109.283C294.676 111.123 295.492 111.779 296.724 111.779C298.212 111.779 299.092 110.787 299.092 108.947V104.835ZM304.72 112.771C303.072 112.771 302.096 111.843 302.096 110.483C302.096 109.059 303.184 108.163 304.992 108.019L307.552 107.811V107.555C307.552 106.035 306.64 105.555 305.504 105.555C304.16 105.555 303.36 106.163 303.36 107.203H302.352C302.352 105.635 303.632 104.627 305.536 104.627C307.328 104.627 308.64 105.523 308.64 107.571V112.579H307.712L307.568 111.219C307.088 112.195 306.032 112.771 304.72 112.771ZM304.976 111.875C306.608 111.875 307.552 110.739 307.552 109.059V108.643L305.264 108.819C303.808 108.947 303.216 109.587 303.216 110.451C303.216 111.395 303.92 111.875 304.976 111.875ZM312.007 112.579H310.903V100.915H312.007V112.579ZM2.784 134.579L0.224 126.835H1.36L2.88 131.507C3.056 132.019 3.2 132.547 3.36 133.171C3.488 132.547 3.744 131.763 3.824 131.507L5.36 126.835H6.496L8.016 131.507C8.16 131.923 8.352 132.595 8.496 133.171C8.656 132.531 8.688 132.339 8.96 131.507L10.496 126.835H11.648L9.024 134.579H7.952L6.352 129.715C6.16 129.139 6.032 128.659 5.936 128.195C5.824 128.611 5.696 129.075 5.488 129.715L3.888 134.579H2.784ZM15.9313 134.771C13.6593 134.771 12.1393 133.139 12.1393 130.707C12.1393 128.291 13.6432 126.627 15.8513 126.627C17.9473 126.627 19.3713 128.115 19.3713 130.307V130.851H13.2113C13.2913 132.739 14.2833 133.827 15.9473 133.827C17.2113 133.827 18.0273 133.283 18.3153 132.259H19.3713C18.9553 133.891 17.7553 134.771 15.9313 134.771ZM15.8513 127.571C14.3953 127.571 13.4353 128.531 13.2433 130.051H18.2673C18.2673 128.563 17.3073 127.571 15.8513 127.571ZM23.2823 134.771C21.6343 134.771 20.6583 133.843 20.6583 132.483C20.6583 131.059 21.7463 130.163 23.5543 130.019L26.1143 129.811V129.555C26.1143 128.035 25.2023 127.555 24.0663 127.555C22.7223 127.555 21.9223 128.163 21.9223 129.203H20.9143C20.9143 127.635 22.1943 126.627 24.0983 126.627C25.8903 126.627 27.2023 127.523 27.2023 129.571V134.579H26.2743L26.1303 133.219C25.6503 134.195 24.5943 134.771 23.2823 134.771ZM23.5383 133.875C25.1703 133.875 26.1143 132.739 26.1143 131.059V130.643L23.8263 130.819C22.3703 130.947 21.7783 131.587 21.7783 132.451C21.7783 133.395 22.4823 133.875 23.5383 133.875ZM33.4656 126.739V127.731H32.8576C31.4336 127.731 30.5216 128.691 30.5216 130.163V134.579H29.4176V126.835H30.4576L30.5376 128.035C30.8416 127.203 31.6576 126.659 32.7456 126.659C32.9856 126.659 33.1936 126.675 33.4656 126.739ZM41.1468 134.579H40.0588V127.763H38.5068V126.835H40.0588V124.387H41.1468V126.835H42.6988V127.763H41.1468V134.579ZM43.5143 130.707C43.5143 128.339 45.1783 126.627 47.4503 126.627C49.7223 126.627 51.3863 128.339 51.3863 130.707C51.3863 133.059 49.7223 134.771 47.4503 134.771C45.1783 134.771 43.5143 133.059 43.5143 130.707ZM44.6343 130.691C44.6343 132.515 45.7863 133.779 47.4503 133.779C49.0983 133.779 50.2663 132.515 50.2663 130.691C50.2663 128.899 49.0983 127.619 47.4503 127.619C45.7863 127.619 44.6343 128.899 44.6343 130.691ZM60.8375 134.771C58.5655 134.771 57.0455 133.139 57.0455 130.707C57.0455 128.291 58.5495 126.627 60.7575 126.627C62.8535 126.627 64.2775 128.115 64.2775 130.307V130.851H58.1175C58.1975 132.739 59.1895 133.827 60.8535 133.827C62.1175 133.827 62.9335 133.283 63.2215 132.259H64.2775C63.8615 133.891 62.6615 134.771 60.8375 134.771ZM60.7575 127.571C59.3015 127.571 58.3415 128.531 58.1495 130.051H63.1735C63.1735 128.563 62.2135 127.571 60.7575 127.571ZM67.1946 134.579H66.0906V122.915H67.1946V134.579ZM72.7906 134.771C70.5186 134.771 68.9986 133.139 68.9986 130.707C68.9986 128.291 70.5026 126.627 72.7106 126.627C74.8066 126.627 76.2306 128.115 76.2306 130.307V130.851H70.0706C70.1506 132.739 71.1426 133.827 72.8066 133.827C74.0706 133.827 74.8866 133.283 75.1746 132.259H76.2306C75.8146 133.891 74.6146 134.771 72.7906 134.771ZM72.7106 127.571C71.2546 127.571 70.2946 128.531 70.1026 130.051H75.1266C75.1266 128.563 74.1666 127.571 72.7106 127.571ZM77.4678 130.483C77.4678 128.371 78.8278 126.627 81.0998 126.627C82.4438 126.627 83.4678 127.251 83.9638 128.387L84.0758 126.835H85.0358V134.339C85.0358 136.643 83.5638 138.147 81.2918 138.147C79.3078 138.147 77.9158 137.027 77.6118 135.155H78.7158C78.9557 136.403 79.9158 137.139 81.3078 137.139C82.8918 137.139 83.9478 136.067 83.9478 134.451V132.611C83.4198 133.699 82.3478 134.339 81.0198 134.339C78.8118 134.339 77.4678 132.595 77.4678 130.483ZM78.5718 130.467C78.5718 132.051 79.5478 133.347 81.1798 133.347C82.8598 133.347 83.8518 132.131 83.8518 130.467C83.8518 128.819 82.8918 127.603 81.1958 127.603C79.5318 127.603 78.5718 128.899 78.5718 130.467ZM89.5635 134.771C87.9155 134.771 86.9395 133.843 86.9395 132.483C86.9395 131.059 88.0275 130.163 89.8355 130.019L92.3955 129.811V129.555C92.3955 128.035 91.4835 127.555 90.3475 127.555C89.0035 127.555 88.2035 128.163 88.2035 129.203H87.1955C87.1955 127.635 88.4755 126.627 90.3795 126.627C92.1715 126.627 93.4835 127.523 93.4835 129.571V134.579H92.5555L92.4115 133.219C91.9315 134.195 90.8755 134.771 89.5635 134.771ZM89.8195 133.875C91.4515 133.875 92.3955 132.739 92.3955 131.059V130.643L90.1075 130.819C88.6515 130.947 88.0595 131.587 88.0595 132.451C88.0595 133.395 88.7635 133.875 89.8195 133.875ZM96.8029 134.579H95.6989V126.835H96.6589L96.8189 128.179C97.3309 127.187 98.3549 126.627 99.4749 126.627C101.603 126.627 102.483 127.891 102.483 129.843V134.579H101.379V130.083C101.379 128.275 100.563 127.635 99.2829 127.635C97.6989 127.635 96.8029 128.787 96.8029 130.531V134.579ZM106.459 134.579H105.371V127.763H103.819V126.835H105.371V124.387H106.459V126.835H108.011V127.763H106.459V134.579ZM116.926 134.771C114.67 134.771 113.342 133.043 113.342 130.723C113.342 128.387 114.67 126.627 116.974 126.627C118.254 126.627 119.278 127.187 119.822 128.307V122.915H120.926V134.579H119.966L119.854 132.995C119.31 134.195 118.222 134.771 116.926 134.771ZM117.118 133.763C118.814 133.763 119.806 132.483 119.806 130.691C119.806 128.915 118.814 127.619 117.118 127.619C115.438 127.619 114.462 128.915 114.462 130.691C114.462 132.483 115.438 133.763 117.118 133.763ZM127.278 126.739V127.731H126.67C125.246 127.731 124.334 128.691 124.334 130.163V134.579H123.23V126.835H124.27L124.35 128.035C124.654 127.203 125.47 126.659 126.558 126.659C126.798 126.659 127.006 126.675 127.278 126.739ZM131.697 134.771C129.425 134.771 127.905 133.139 127.905 130.707C127.905 128.291 129.409 126.627 131.617 126.627C133.713 126.627 135.137 128.115 135.137 130.307V130.851H128.977C129.057 132.739 130.049 133.827 131.713 133.827C132.977 133.827 133.793 133.283 134.081 132.259H135.137C134.721 133.891 133.521 134.771 131.697 134.771ZM131.617 127.571C130.161 127.571 129.201 128.531 129.009 130.051H134.033C134.033 128.563 133.073 127.571 131.617 127.571ZM136.246 132.403H137.302C137.302 133.299 137.974 133.859 139.062 133.859C140.262 133.859 140.966 133.347 140.966 132.515C140.966 131.875 140.646 131.507 139.734 131.283L138.406 130.947C137.062 130.611 136.406 129.907 136.406 128.851C136.406 127.491 137.542 126.627 139.206 126.627C140.838 126.627 141.894 127.523 141.942 128.963H140.87C140.838 128.067 140.214 127.539 139.174 127.539C138.086 127.539 137.478 128.003 137.478 128.835C137.478 129.427 137.894 129.843 138.742 130.051L140.07 130.387C141.414 130.723 142.022 131.347 142.022 132.467C142.022 133.859 140.838 134.771 139.078 134.771C137.334 134.771 136.246 133.843 136.246 132.403ZM143.184 132.403H144.24C144.24 133.299 144.912 133.859 146 133.859C147.2 133.859 147.904 133.347 147.904 132.515C147.904 131.875 147.584 131.507 146.672 131.283L145.344 130.947C144 130.611 143.344 129.907 143.344 128.851C143.344 127.491 144.48 126.627 146.144 126.627C147.776 126.627 148.832 127.523 148.88 128.963H147.808C147.776 128.067 147.152 127.539 146.112 127.539C145.024 127.539 144.416 128.003 144.416 128.835C144.416 129.427 144.832 129.843 145.68 130.051L147.008 130.387C148.352 130.723 148.96 131.347 148.96 132.467C148.96 133.859 147.776 134.771 146.016 134.771C144.272 134.771 143.184 133.843 143.184 132.403ZM154.025 134.771C151.753 134.771 150.233 133.139 150.233 130.707C150.233 128.291 151.737 126.627 153.945 126.627C156.041 126.627 157.465 128.115 157.465 130.307V130.851H151.305C151.385 132.739 152.377 133.827 154.041 133.827C155.305 133.827 156.121 133.283 156.409 132.259H157.465C157.049 133.891 155.849 134.771 154.025 134.771ZM153.945 127.571C152.489 127.571 151.529 128.531 151.337 130.051H156.361C156.361 128.563 155.401 127.571 153.945 127.571ZM158.574 132.403H159.63C159.63 133.299 160.302 133.859 161.39 133.859C162.59 133.859 163.294 133.347 163.294 132.515C163.294 131.875 162.974 131.507 162.062 131.283L160.734 130.947C159.39 130.611 158.734 129.907 158.734 128.851C158.734 127.491 159.87 126.627 161.534 126.627C163.166 126.627 164.222 127.523 164.27 128.963H163.198C163.166 128.067 162.542 127.539 161.502 127.539C160.414 127.539 159.806 128.003 159.806 128.835C159.806 129.427 160.222 129.843 161.07 130.051L162.398 130.387C163.742 130.723 164.35 131.347 164.35 132.467C164.35 133.859 163.166 134.771 161.406 134.771C159.662 134.771 158.574 133.843 158.574 132.403ZM167.995 134.035C167.995 135.027 167.227 135.891 166.235 136.035V135.443C166.811 135.347 167.227 134.931 167.227 134.483C167.131 134.547 167.003 134.595 166.811 134.595C166.363 134.595 165.979 134.275 165.979 133.731C165.979 133.171 166.363 132.771 166.923 132.771C167.499 132.771 167.995 133.235 167.995 134.035ZM177.916 134.771C175.644 134.771 174.124 133.139 174.124 130.707C174.124 128.291 175.628 126.627 177.836 126.627C179.932 126.627 181.356 128.115 181.356 130.307V130.851H175.196C175.276 132.739 176.268 133.827 177.932 133.827C179.196 133.827 180.012 133.283 180.3 132.259H181.356C180.94 133.891 179.74 134.771 177.916 134.771ZM177.836 127.571C176.38 127.571 175.42 128.531 175.228 130.051H180.252C180.252 128.563 179.292 127.571 177.836 127.571ZM185.078 134.579L181.91 126.835H183.094L185.094 131.827C185.302 132.387 185.51 132.915 185.654 133.427C185.798 132.899 186.006 132.387 186.23 131.827L188.262 126.835H189.398L186.182 134.579H185.078ZM193.603 134.771C191.331 134.771 189.811 133.139 189.811 130.707C189.811 128.291 191.315 126.627 193.523 126.627C195.619 126.627 197.043 128.115 197.043 130.307V130.851H190.883C190.963 132.739 191.955 133.827 193.619 133.827C194.883 133.827 195.699 133.283 195.987 132.259H197.043C196.627 133.891 195.427 134.771 193.603 134.771ZM193.523 127.571C192.067 127.571 191.107 128.531 190.915 130.051H195.939C195.939 128.563 194.979 127.571 193.523 127.571ZM202.856 126.739V127.731H202.248C200.824 127.731 199.912 128.691 199.912 130.163V134.579H198.808V126.835H199.848L199.928 128.035C200.232 127.203 201.048 126.659 202.136 126.659C202.376 126.659 202.584 126.675 202.856 126.739ZM203.774 137.955V137.043H204.622C205.294 137.043 205.966 136.995 206.35 135.955L206.686 135.043L203.55 126.835H204.718L207.214 133.587L209.662 126.835H210.798L207.246 136.355C206.798 137.571 206.046 138.067 204.942 138.067C204.478 138.067 204.126 138.035 203.774 137.955ZM216.527 137.955V126.835H217.487L217.599 128.403C218.143 127.203 219.231 126.627 220.527 126.627C222.767 126.627 224.111 128.339 224.111 130.675C224.111 133.011 222.815 134.771 220.527 134.771C219.215 134.771 218.175 134.211 217.631 133.091V137.955H216.527ZM217.647 130.707C217.647 132.483 218.639 133.779 220.335 133.779C222.015 133.779 222.991 132.483 222.991 130.707C222.991 128.915 222.015 127.635 220.335 127.635C218.639 127.635 217.647 128.915 217.647 130.707ZM226.415 124.707C225.967 124.707 225.599 124.339 225.599 123.891C225.599 123.443 225.967 123.059 226.415 123.059C226.863 123.059 227.247 123.443 227.247 123.891C227.247 124.339 226.863 124.707 226.415 124.707ZM225.871 134.579V126.835H226.975V134.579H225.871ZM232.525 134.771C230.253 134.771 228.733 133.139 228.733 130.707C228.733 128.291 230.237 126.627 232.445 126.627C234.541 126.627 235.965 128.115 235.965 130.307V130.851H229.805C229.885 132.739 230.877 133.827 232.541 133.827C233.805 133.827 234.621 133.283 234.909 132.259H235.965C235.549 133.891 234.349 134.771 232.525 134.771ZM232.445 127.571C230.989 127.571 230.029 128.531 229.837 130.051H234.861C234.861 128.563 233.901 127.571 232.445 127.571ZM237.186 130.723C237.186 128.291 238.674 126.627 240.93 126.627C242.722 126.627 244.034 127.667 244.338 129.267H243.234C242.946 128.195 242.018 127.603 240.946 127.603C239.378 127.603 238.274 128.803 238.274 130.707C238.274 132.547 239.298 133.779 240.866 133.779C242.018 133.779 242.946 133.139 243.25 132.147H244.37C244.002 133.731 242.626 134.771 240.866 134.771C238.674 134.771 237.186 133.155 237.186 130.723ZM249.291 134.771C247.019 134.771 245.499 133.139 245.499 130.707C245.499 128.291 247.003 126.627 249.211 126.627C251.307 126.627 252.731 128.115 252.731 130.307V130.851H246.571C246.651 132.739 247.643 133.827 249.307 133.827C250.571 133.827 251.387 133.283 251.675 132.259H252.731C252.315 133.891 251.115 134.771 249.291 134.771ZM249.211 127.571C247.755 127.571 246.795 128.531 246.603 130.051H251.627C251.627 128.563 250.667 127.571 249.211 127.571ZM260.325 123.123V134.579H259.173V123.123H260.325ZM263.799 123.907L263.495 127.091H262.775L262.455 123.907C262.391 123.347 262.791 123.091 263.143 123.091C263.479 123.091 263.863 123.347 263.799 123.907ZM267.843 134.579L264.675 126.835H265.859L267.859 131.827C268.067 132.387 268.275 132.915 268.419 133.427C268.563 132.899 268.771 132.387 268.995 131.827L271.027 126.835H272.163L268.947 134.579H267.843ZM276.369 134.771C274.097 134.771 272.577 133.139 272.577 130.707C272.577 128.291 274.081 126.627 276.289 126.627C278.385 126.627 279.809 128.115 279.809 130.307V130.851H273.649C273.729 132.739 274.721 133.827 276.385 133.827C277.649 133.827 278.465 133.283 278.753 132.259H279.809C279.393 133.891 278.193 134.771 276.369 134.771ZM276.289 127.571C274.833 127.571 273.873 128.531 273.681 130.051H278.705C278.705 128.563 277.745 127.571 276.289 127.571ZM286.971 134.579H286.011V122.915H287.115V128.339C287.659 127.203 288.715 126.627 290.027 126.627C292.283 126.627 293.595 128.387 293.595 130.723C293.595 133.043 292.251 134.771 289.995 134.771C288.699 134.771 287.627 134.195 287.083 132.995L286.971 134.579ZM287.131 130.691C287.131 132.483 288.123 133.763 289.819 133.763C291.499 133.763 292.475 132.483 292.475 130.691C292.475 128.915 291.499 127.619 289.819 127.619C288.123 127.619 287.131 128.915 287.131 130.691ZM294.811 130.707C294.811 128.339 296.475 126.627 298.747 126.627C301.019 126.627 302.683 128.339 302.683 130.707C302.683 133.059 301.019 134.771 298.747 134.771C296.475 134.771 294.811 133.059 294.811 130.707ZM295.931 130.691C295.931 132.515 297.083 133.779 298.747 133.779C300.395 133.779 301.563 132.515 301.563 130.691C301.563 128.899 300.395 127.619 298.747 127.619C297.083 127.619 295.931 128.899 295.931 130.691ZM309.701 126.835H310.805V134.579H309.845L309.701 133.267C309.269 134.163 308.197 134.771 306.981 134.771C305.157 134.771 304.165 133.523 304.165 131.635V126.819H305.285V131.283C305.285 133.123 306.101 133.779 307.333 133.779C308.821 133.779 309.701 132.787 309.701 130.947V126.835ZM312.577 130.483C312.577 128.371 313.937 126.627 316.209 126.627C317.553 126.627 318.577 127.251 319.073 128.387L319.185 126.835H320.145V134.339C320.145 136.643 318.673 138.147 316.401 138.147C314.417 138.147 313.025 137.027 312.721 135.155H313.825C314.065 136.403 315.025 137.139 316.417 137.139C318.001 137.139 319.057 136.067 319.057 134.451V132.611C318.529 133.699 317.457 134.339 316.129 134.339C313.921 134.339 312.577 132.595 312.577 130.483ZM313.681 130.467C313.681 132.051 314.657 133.347 316.289 133.347C317.969 133.347 318.961 132.131 318.961 130.467C318.961 128.819 318.001 127.603 316.305 127.603C314.641 127.603 313.681 128.899 313.681 130.467ZM323.553 134.563H322.449V122.915H323.553V128.179C324.049 127.251 324.993 126.627 326.289 126.627C328.321 126.627 329.233 127.891 329.233 129.843V134.579H328.129V130.083C328.129 128.275 327.281 127.635 326.081 127.635C324.417 127.635 323.553 128.867 323.553 130.355V134.563ZM333.209 134.579H332.121V127.763H330.569V126.835H332.121V124.387H333.209V126.835H334.761V127.763H333.209V134.579ZM2.256 156.563H1.152V144.915H2.256V150.179C2.752 149.251 3.696 148.627 4.992 148.627C7.024 148.627 7.936 149.891 7.936 151.843V156.579H6.832V152.083C6.832 150.275 5.984 149.635 4.784 149.635C3.12 149.635 2.256 150.867 2.256 152.355V156.563ZM12.3604 156.771C10.7124 156.771 9.73638 155.843 9.73638 154.483C9.73638 153.059 10.8244 152.163 12.6324 152.019L15.1924 151.811V151.555C15.1924 150.035 14.2804 149.555 13.1444 149.555C11.8004 149.555 11.0004 150.163 11.0004 151.203H9.99238C9.99238 149.635 11.2724 148.627 13.1764 148.627C14.9684 148.627 16.2804 149.523 16.2804 151.571V156.579H15.3524L15.2084 155.219C14.7284 156.195 13.6724 156.771 12.3604 156.771ZM12.6164 155.875C14.2484 155.875 15.1924 154.739 15.1924 153.059V152.643L12.9044 152.819C11.4484 152.947 10.8564 153.587 10.8564 154.451C10.8564 155.395 11.5604 155.875 12.6164 155.875ZM17.8398 154.403H18.8958C18.8958 155.299 19.5678 155.859 20.6558 155.859C21.8558 155.859 22.5598 155.347 22.5598 154.515C22.5598 153.875 22.2398 153.507 21.3278 153.283L19.9998 152.947C18.6558 152.611 17.9998 151.907 17.9998 150.851C17.9998 149.491 19.1358 148.627 20.7998 148.627C22.4318 148.627 23.4878 149.523 23.5358 150.963H22.4638C22.4318 150.067 21.8078 149.539 20.7678 149.539C19.6798 149.539 19.0718 150.003 19.0718 150.835C19.0718 151.427 19.4878 151.843 20.3358 152.051L21.6638 152.387C23.0078 152.723 23.6158 153.347 23.6158 154.467C23.6158 155.859 22.4318 156.771 20.6718 156.771C18.9278 156.771 17.8398 155.843 17.8398 154.403ZM33.1188 156.771C30.8468 156.771 29.3268 155.139 29.3268 152.707C29.3268 150.291 30.8307 148.627 33.0388 148.627C35.1348 148.627 36.5588 150.115 36.5588 152.307V152.851H30.3988C30.4788 154.739 31.4708 155.827 33.1348 155.827C34.3988 155.827 35.2148 155.283 35.5028 154.259H36.5588C36.1428 155.891 34.9428 156.771 33.1188 156.771ZM33.0388 149.571C31.5828 149.571 30.6228 150.531 30.4308 152.051H35.4548C35.4548 150.563 34.4948 149.571 33.0388 149.571ZM38.3623 156.579H37.0663L39.8343 152.707L37.0823 148.835H38.3783L40.5703 151.939L42.7463 148.835H44.0263L41.2743 152.723L44.0103 156.579H42.6983L40.5223 153.475L38.3623 156.579ZM44.5299 152.723C44.5299 150.291 46.0179 148.627 48.2739 148.627C50.0659 148.627 51.3779 149.667 51.6819 151.267H50.5779C50.2899 150.195 49.3619 149.603 48.2899 149.603C46.7219 149.603 45.6179 150.803 45.6179 152.707C45.6179 154.547 46.6419 155.779 48.2099 155.779C49.3619 155.779 50.2899 155.139 50.5939 154.147H51.7139C51.3459 155.731 49.9699 156.771 48.2099 156.771C46.0179 156.771 44.5299 155.155 44.5299 152.723ZM56.6344 156.771C54.3624 156.771 52.8424 155.139 52.8424 152.707C52.8424 150.291 54.3464 148.627 56.5544 148.627C58.6504 148.627 60.0744 150.115 60.0744 152.307V152.851H53.9144C53.9944 154.739 54.9864 155.827 56.6504 155.827C57.9144 155.827 58.7304 155.283 59.0184 154.259H60.0744C59.6584 155.891 58.4584 156.771 56.6344 156.771ZM56.5544 149.571C55.0984 149.571 54.1384 150.531 53.9464 152.051H58.9704C58.9704 150.563 58.0104 149.571 56.5544 149.571ZM65.0875 156.771C62.8155 156.771 61.2955 155.139 61.2955 152.707C61.2955 150.291 62.7995 148.627 65.0075 148.627C67.1035 148.627 68.5275 150.115 68.5275 152.307V152.851H62.3675C62.4475 154.739 63.4395 155.827 65.1035 155.827C66.3675 155.827 67.1835 155.283 67.4715 154.259H68.5275C68.1115 155.891 66.9115 156.771 65.0875 156.771ZM65.0075 149.571C63.5515 149.571 62.5915 150.531 62.3995 152.051H67.4235C67.4235 150.563 66.4635 149.571 65.0075 149.571ZM73.3326 156.771C71.0766 156.771 69.7486 155.043 69.7486 152.723C69.7486 150.387 71.0766 148.627 73.3806 148.627C74.6606 148.627 75.6846 149.187 76.2286 150.307V144.915H77.3326V156.579H76.3726L76.2606 154.995C75.7166 156.195 74.6286 156.771 73.3326 156.771ZM73.5246 155.763C75.2206 155.763 76.2126 154.483 76.2126 152.691C76.2126 150.915 75.2206 149.619 73.5246 149.619C71.8446 149.619 70.8686 150.915 70.8686 152.691C70.8686 154.483 71.8446 155.763 73.5246 155.763ZM82.8844 156.771C80.6124 156.771 79.0924 155.139 79.0924 152.707C79.0924 150.291 80.5964 148.627 82.8044 148.627C84.9004 148.627 86.3244 150.115 86.3244 152.307V152.851H80.1644C80.2444 154.739 81.2364 155.827 82.9004 155.827C84.1644 155.827 84.9804 155.283 85.2684 154.259H86.3244C85.9084 155.891 84.7084 156.771 82.8844 156.771ZM82.8044 149.571C81.3484 149.571 80.3884 150.531 80.1964 152.051H85.2204C85.2204 150.563 84.2604 149.571 82.8044 149.571ZM91.1295 156.771C88.8735 156.771 87.5455 155.043 87.5455 152.723C87.5455 150.387 88.8735 148.627 91.1775 148.627C92.4575 148.627 93.4815 149.187 94.0255 150.307V144.915H95.1295V156.579H94.1695L94.0575 154.995C93.5135 156.195 92.4255 156.771 91.1295 156.771ZM91.3215 155.763C93.0175 155.763 94.0095 154.483 94.0095 152.691C94.0095 150.915 93.0175 149.619 91.3215 149.619C89.6415 149.619 88.6655 150.915 88.6655 152.691C88.6655 154.483 89.6415 155.763 91.3215 155.763ZM102.975 156.579H101.871V148.835H102.831L102.959 149.939C103.343 149.123 104.207 148.627 105.295 148.627C106.511 148.627 107.423 149.267 107.791 150.275C108.143 149.267 109.087 148.627 110.335 148.627C112.015 148.627 113.119 149.715 113.119 151.507V156.579H112.047V151.731C112.047 150.403 111.311 149.619 110.127 149.619C108.831 149.619 108.063 150.595 108.063 151.795V156.579H106.975V151.715C106.975 150.403 106.223 149.635 105.055 149.635C103.759 149.635 102.975 150.595 102.975 151.779V156.579ZM114.399 159.955V159.043H115.247C115.919 159.043 116.591 158.995 116.975 157.955L117.311 157.043L114.175 148.835H115.343L117.839 155.587L120.287 148.835H121.423L117.871 158.355C117.423 159.571 116.671 160.067 115.567 160.067C115.103 160.067 114.751 160.035 114.399 159.955ZM130.4 156.771C128.128 156.771 126.608 155.139 126.608 152.707C126.608 150.291 128.112 148.627 130.32 148.627C132.416 148.627 133.84 150.115 133.84 152.307V152.851H127.68C127.76 154.739 128.752 155.827 130.416 155.827C131.68 155.827 132.496 155.283 132.784 154.259H133.84C133.424 155.891 132.224 156.771 130.4 156.771ZM130.32 149.571C128.864 149.571 127.904 150.531 127.712 152.051H132.736C132.736 150.563 131.776 149.571 130.32 149.571ZM135.644 156.579H134.348L137.116 152.707L134.364 148.835H135.66L137.852 151.939L140.028 148.835H141.308L138.556 152.723L141.292 156.579H139.98L137.804 153.475L135.644 156.579ZM142.621 159.955V148.835H143.581L143.693 150.403C144.237 149.203 145.325 148.627 146.621 148.627C148.861 148.627 150.205 150.339 150.205 152.675C150.205 155.011 148.909 156.771 146.621 156.771C145.309 156.771 144.269 156.211 143.725 155.091V159.955H142.621ZM143.741 152.707C143.741 154.483 144.733 155.779 146.429 155.779C148.109 155.779 149.085 154.483 149.085 152.707C149.085 150.915 148.109 149.635 146.429 149.635C144.733 149.635 143.741 150.915 143.741 152.707ZM155.213 156.771C152.941 156.771 151.421 155.139 151.421 152.707C151.421 150.291 152.924 148.627 155.133 148.627C157.229 148.627 158.653 150.115 158.653 152.307V152.851H152.493C152.573 154.739 153.565 155.827 155.229 155.827C156.493 155.827 157.309 155.283 157.597 154.259H158.653C158.237 155.891 157.037 156.771 155.213 156.771ZM155.133 149.571C153.677 149.571 152.717 150.531 152.525 152.051H157.549C157.549 150.563 156.589 149.571 155.133 149.571ZM159.874 152.723C159.874 150.291 161.362 148.627 163.618 148.627C165.41 148.627 166.722 149.667 167.026 151.267H165.922C165.634 150.195 164.706 149.603 163.634 149.603C162.066 149.603 160.962 150.803 160.962 152.707C160.962 154.547 161.986 155.779 163.554 155.779C164.706 155.779 165.634 155.139 165.938 154.147H167.058C166.69 155.731 165.314 156.771 163.554 156.771C161.362 156.771 159.874 155.155 159.874 152.723ZM170.506 156.579H169.418V149.763H167.866V148.835H169.418V146.387H170.506V148.835H172.058V149.763H170.506V156.579ZM175.595 156.771C173.947 156.771 172.971 155.843 172.971 154.483C172.971 153.059 174.059 152.163 175.867 152.019L178.427 151.811V151.555C178.427 150.035 177.515 149.555 176.379 149.555C175.035 149.555 174.235 150.163 174.235 151.203H173.227C173.227 149.635 174.507 148.627 176.411 148.627C178.203 148.627 179.515 149.523 179.515 151.571V156.579H178.587L178.443 155.219C177.963 156.195 176.907 156.771 175.595 156.771ZM175.851 155.875C177.483 155.875 178.427 154.739 178.427 153.059V152.643L176.139 152.819C174.683 152.947 174.091 153.587 174.091 154.451C174.091 155.395 174.795 155.875 175.851 155.875ZM183.366 156.579H182.278V149.763H180.726V148.835H182.278V146.387H183.366V148.835H184.918V149.763H183.366V156.579ZM186.899 146.707C186.451 146.707 186.083 146.339 186.083 145.891C186.083 145.443 186.451 145.059 186.899 145.059C187.347 145.059 187.731 145.443 187.731 145.891C187.731 146.339 187.347 146.707 186.899 146.707ZM186.355 156.579V148.835H187.459V156.579H186.355ZM189.217 152.707C189.217 150.339 190.881 148.627 193.153 148.627C195.425 148.627 197.089 150.339 197.089 152.707C197.089 155.059 195.425 156.771 193.153 156.771C190.881 156.771 189.217 155.059 189.217 152.707ZM190.337 152.691C190.337 154.515 191.489 155.779 193.153 155.779C194.801 155.779 195.969 154.515 195.969 152.691C195.969 150.899 194.801 149.619 193.153 149.619C191.489 149.619 190.337 150.899 190.337 152.691ZM199.959 156.579H198.855V148.835H199.815L199.975 150.179C200.487 149.187 201.511 148.627 202.631 148.627C204.759 148.627 205.639 149.891 205.639 151.843V156.579H204.535V152.083C204.535 150.275 203.719 149.635 202.439 149.635C200.855 149.635 199.959 150.787 199.959 152.531V156.579ZM207.09 154.403H208.146C208.146 155.299 208.818 155.859 209.906 155.859C211.106 155.859 211.81 155.347 211.81 154.515C211.81 153.875 211.49 153.507 210.578 153.283L209.25 152.947C207.906 152.611 207.25 151.907 207.25 150.851C207.25 149.491 208.386 148.627 210.05 148.627C211.682 148.627 212.738 149.523 212.786 150.963H211.714C211.682 150.067 211.058 149.539 210.018 149.539C208.93 149.539 208.322 150.003 208.322 150.835C208.322 151.427 208.738 151.843 209.586 152.051L210.914 152.387C212.258 152.723 212.866 153.347 212.866 154.467C212.866 155.859 211.682 156.771 209.922 156.771C208.178 156.771 207.09 155.843 207.09 154.403ZM215.502 156.755C214.958 156.755 214.494 156.307 214.494 155.779C214.494 155.235 214.958 154.771 215.502 154.771C216.046 154.771 216.51 155.235 216.51 155.779C216.51 156.307 216.046 156.755 215.502 156.755ZM219.194 146.147C219.194 147.155 218.458 148.003 217.466 148.147V147.555C218.026 147.443 218.442 147.043 218.442 146.595C218.346 146.659 218.202 146.691 218.01 146.691C217.594 146.691 217.226 146.387 217.226 145.843C217.226 145.299 217.61 144.899 218.17 144.899C218.714 144.899 219.194 145.363 219.194 146.147ZM221.786 146.147C221.786 147.155 221.034 148.003 220.058 148.147V147.555C220.618 147.443 221.034 147.043 221.034 146.579C220.938 146.643 220.81 146.691 220.602 146.691C220.186 146.691 219.802 146.387 219.802 145.843C219.802 145.299 220.186 144.899 220.746 144.899C221.306 144.899 221.786 145.363 221.786 146.147Z" fill="black" fill-opacity="0.6"/>
</svg>
